<svg xmlns="http://www.w3.org/2000/svg" viewBox="0 0 300 300" fill="#2F4F3A"><defs><path id="p" d="M50 4 L70 46 L60 46 L82 84 L70 84 L92 122 L56 122 L56 138 L44 138 L44 122 L8 122 L30 84 L18 84 L40 46 L30 46 Z"/></defs><use href="#p" transform="translate(60 70) translate(-35.0 -49.0) scale(0.7000)"/><use href="#p" transform="translate(170 55) translate(-26.0 -36.4) scale(0.5200)"/><use href="#p" transform="translate(255 95) translate(-30.0 -42.0) scale(0.6000)"/><use href="#p" transform="translate(40 200) translate(-28.0 -39.2) scale(0.5600)"/><use href="#p" transform="translate(130 205) translate(-36.0 -50.4) scale(0.7200)"/><use href="#p" transform="translate(235 215) translate(-27.0 -37.8) scale(0.5400)"/><use href="#p" transform="translate(90 135) translate(-22.0 -30.8) scale(0.4400)"/><use href="#p" transform="translate(205 150) translate(-24.0 -33.6) scale(0.4800)"/></svg>